<?xml version="1.0" standalone="no"?>
<!DOCTYPE svg PUBLIC "-//W3C//DTD SVG 20010904//EN"
 "http://www.w3.org/TR/2001/REC-SVG-20010904/DTD/svg10.dtd">
<svg version="1.0" xmlns="http://www.w3.org/2000/svg"
 width="294.000000pt" height="171.000000pt" viewBox="0 0 294.000000 171.000000"
 preserveAspectRatio="xMidYMid meet">
<metadata>
Created by potrace 1.10, written by Peter Selinger 2001-2011
</metadata>
<g transform="translate(0.000000,171.000000) scale(0.100000,-0.100000)"
fill="#ffffff" stroke="none">
<path d="M1195 1689 c-224 -34 -435 -113 -593 -222 -92 -63 -146 -124 -186
-207 -39 -84 -43 -187 -8 -264 90 -200 348 -354 712 -427 150 -31 461 -38 620
-15 255 38 461 111 616 222 82 57 140 124 178 204 27 56 31 76 31 145 0 67 -5
89 -28 138 -72 147 -255 279 -502 360 -183 61 -240 69 -520 72 -143 2 -287 -1
-320 -6z m590 -69 c248 -42 442 -123 563 -235 158 -146 181 -299 69 -452 -261
-353 -1131 -452 -1647 -187 -220 113 -332 273 -300 428 69 332 709 549 1315
446z m670 -284 c57 -70 75 -120 75 -215 0 -76 -3 -89 -36 -152 -22 -42 -57
-88 -87 -115 -78 -70 -90 -70 -22 0 35 36 76 90 93 126 28 54 32 74 32 139 0
97 -32 170 -116 261 -55 60 -56 62 -16 31 23 -18 58 -52 77 -75z m-1905 37
c-28 -32 -64 -85 -80 -117 -25 -50 -30 -71 -30 -136 0 -65 5 -86 30 -136 16
-32 53 -86 82 -119 52 -59 52 -59 12 -28 -52 41 -88 88 -119 155 -36 78 -35
193 2 268 22 44 133 170 150 170 2 0 -18 -26 -47 -57z"/>
<path d="M1157 1555 c-12 -71 -50 -176 -74 -199 -14 -14 -46 -30 -76 -36 -38
-8 -429 -60 -454 -60 -2 0 -3 -4 -3 -8 0 -4 60 -13 133 -20 187 -18 337 -42
369 -58 15 -8 35 -25 43 -38 18 -27 65 -206 65 -247 0 -42 18 -36 26 9 15 87
45 205 59 231 8 16 29 35 47 44 43 20 413 67 531 67 101 0 214 -15 234 -31 6
-6 17 -35 24 -65 7 -30 15 -54 18 -54 4 0 12 23 18 51 7 28 17 57 23 64 11 14
114 35 168 35 18 0 32 4 32 9 0 10 -25 16 -105 26 -80 10 -103 23 -115 64 -5
20 -10 42 -10 49 0 29 -19 8 -29 -33 -7 -27 -20 -50 -34 -59 -12 -8 -69 -19
-127 -26 -98 -11 -121 -10 -354 20 -252 31 -294 42 -320 83 -13 20 -46 124
-60 190 -9 38 -22 34 -29 -8z m69 -195 c34 -59 68 -71 263 -94 24 -3 46 -8 48
-10 4 -4 -71 -17 -182 -32 -56 -8 -101 -31 -121 -62 -10 -15 -28 -61 -40 -102
l-22 -75 -11 45 c-28 107 -53 150 -102 175 -16 9 -72 22 -125 30 -53 8 -99 16
-101 18 -2 3 33 10 79 16 126 18 153 28 186 66 17 19 41 62 53 96 l23 62 16
-50 c9 -27 25 -65 36 -83z m901 -132 l-28 -28 -27 27 -27 26 25 26 25 26 30
-24 30 -25 -28 -28z"/>
<path d="M1759 1133 c-18 -61 -39 -71 -158 -80 -50 -3 -91 -9 -91 -13 0 -4 46
-12 103 -19 62 -8 109 -19 119 -28 9 -8 22 -40 29 -69 7 -30 15 -54 19 -54 4
0 10 20 14 45 8 64 21 83 64 95 64 18 203 23 265 11 64 -14 85 -35 89 -89 3
-44 14 -40 27 12 6 24 17 48 24 54 8 7 48 17 90 24 43 6 77 15 77 18 0 4 -32
10 -71 14 -90 8 -106 17 -119 66 -13 47 -30 53 -30 10 0 -66 -70 -88 -246 -77
-121 7 -145 19 -164 79 -8 27 -18 48 -21 48 -3 0 -12 -21 -20 -47z m45 -124
l-26 -27 -23 26 -23 26 22 27 21 27 28 -26 27 -26 -26 -27z m446 46 c10 -13
10 -19 -5 -35 -23 -25 -27 -25 -43 1 -23 37 20 67 48 34z"/>
<path d="M1433 928 c-20 -72 -28 -78 -133 -90 -155 -17 -158 -24 -19 -39 52
-6 104 -17 116 -24 14 -10 26 -33 34 -70 7 -30 15 -55 19 -55 4 0 11 17 15 37
9 50 31 90 52 97 10 3 56 10 102 16 97 13 241 -2 266 -27 8 -7 19 -32 25 -55
13 -46 21 -42 39 19 6 24 19 44 29 47 17 5 165 26 183 26 5 0 9 4 9 8 0 4 -43
13 -96 19 -53 6 -101 16 -106 21 -5 5 -15 25 -21 44 -16 44 -30 46 -40 6 -5
-18 -13 -38 -18 -44 -18 -22 -138 -37 -238 -31 -129 8 -155 18 -175 68 -9 22
-16 46 -16 54 0 30 -16 14 -27 -27z m60 -99 c4 -3 -2 -22 -16 -41 l-24 -36
-26 33 -26 33 27 30 27 29 14 -21 c8 -11 19 -24 24 -27z m458 10 l21 -21 -23
-24 -22 -24 -22 23 -21 22 20 23 c24 27 21 27 47 1z"/>
<path d="M49 357 c-33 -22 -34 -25 -34 -86 0 -92 11 -99 195 -112 80 -5 149
-14 153 -18 5 -5 7 -17 5 -27 -3 -17 -15 -19 -122 -22 -120 -3 -151 5 -139 34
4 11 -6 14 -46 14 l-51 0 0 -39 c0 -23 8 -48 19 -62 17 -21 30 -25 110 -29
106 -6 107 3 2 19 -81 13 -101 23 -101 52 0 26 28 24 57 -3 19 -18 38 -23 111
-26 140 -7 203 21 188 84 -9 36 -36 44 -181 54 -145 10 -172 18 -181 54 -21
84 22 106 203 106 144 0 183 -8 183 -40 0 -26 -14 -25 -51 3 -27 20 -42 22
-139 22 -101 0 -110 -2 -134 -24 -31 -29 -32 -41 -6 -74 19 -23 27 -25 137
-31 197 -11 213 -17 213 -86 0 -60 -22 -78 -115 -91 -44 -6 -82 -13 -84 -15
-9 -9 162 -3 180 6 44 24 62 106 35 159 -22 41 -53 50 -201 57 -138 7 -164 16
-151 49 4 12 28 15 127 15 112 0 121 -1 126 -20 4 -17 14 -20 55 -20 l51 0 -6
38 c-4 22 -17 46 -32 60 -25 21 -35 22 -184 22 -148 0 -160 -1 -192 -23z"/>
<path d="M510 221 c0 -154 1 -159 25 -185 22 -23 31 -26 92 -25 65 1 66 1 28
11 -22 5 -50 11 -62 14 -48 9 -53 26 -53 175 0 112 3 139 14 139 22 0 26 -23
26 -139 0 -101 1 -109 25 -131 22 -20 34 -23 117 -23 51 0 103 3 116 7 40 13
52 55 52 176 0 91 3 110 15 110 13 0 15 -22 15 -138 0 -95 -4 -143 -12 -155
-7 -9 -37 -21 -67 -27 -74 -14 -76 -20 -7 -20 111 0 126 28 126 230 l0 140
-52 0 -53 0 3 -132 c3 -117 2 -134 -14 -145 -24 -17 -205 -18 -222 -1 -8 8
-12 55 -12 145 l0 133 -50 0 -50 0 0 -159z"/>
<path d="M1010 193 l0 -188 201 5 c196 5 201 6 220 29 24 30 26 107 2 140 -13
19 -14 28 -5 42 7 10 12 37 12 60 0 32 -6 47 -29 70 l-29 29 -186 0 -186 0 0
-187z m370 144 c29 -15 38 -63 20 -108 -10 -24 -10 -33 4 -54 20 -30 21 -95 2
-121 -13 -17 -30 -19 -190 -22 l-176 -3 0 160 0 161 158 0 c106 0 165 -4 182
-13z"/>
<path d="M1090 311 c-16 -30 -12 -76 8 -94 15 -14 40 -17 123 -17 123 0 149
11 149 65 0 55 -25 65 -157 65 -101 0 -113 -2 -123 -19z m253 -33 c8 -12 7
-21 -2 -32 -11 -13 -35 -16 -122 -16 l-109 0 0 35 0 36 111 -3 c92 -2 114 -6
122 -20z"/>
<path d="M1102 174 c-16 -11 -22 -25 -22 -53 0 -62 19 -71 147 -71 102 0 111
2 131 23 30 32 28 71 -4 96 -23 18 -41 21 -128 21 -76 0 -107 -4 -124 -16z
m232 -20 c16 -6 22 -49 8 -58 -4 -2 -59 -6 -121 -7 l-114 -3 -1 37 -1 37 107
0 c58 0 113 -3 122 -6z"/>
<path d="M1603 282 c-29 -53 -75 -137 -102 -187 l-50 -90 57 1 c52 2 58 4 75
33 l19 31 112 0 112 0 15 -31 c14 -29 18 -31 74 -32 l60 -2 -104 188 -104 187
-56 0 -56 0 -52 -98z m202 -27 c28 -50 67 -120 88 -157 l37 -68 -30 0 c-19 0
-30 5 -30 14 0 8 -12 24 -27 36 -24 19 -37 20 -142 18 l-116 -3 -20 -32 c-13
-20 -28 -32 -42 -33 -13 0 -23 3 -23 6 0 5 46 90 142 262 29 52 31 53 71 50
41 -3 42 -4 92 -93z"/>
<path d="M1688 293 c-24 -27 -68 -120 -68 -142 0 -28 29 -41 93 -41 39 0 62 6
78 19 l24 19 -30 61 c-29 61 -58 101 -74 101 -4 0 -15 -8 -23 -17z m60 -68
c17 -36 32 -68 32 -71 0 -3 -31 -6 -70 -7 -39 -1 -70 0 -70 2 0 9 66 140 70
140 3 1 20 -28 38 -64z"/>
<path d="M2000 193 l0 -188 50 0 50 0 0 68 0 67 115 0 c129 0 122 4 128 -78
l4 -54 52 -2 51 -1 0 50 c0 31 -8 66 -20 89 -17 35 -18 41 -5 60 17 23 20 83
5 120 -18 48 -52 56 -250 56 l-180 0 0 -187z m373 146 c12 -7 25 -17 29 -23
13 -20 8 -77 -9 -106 -15 -27 -15 -30 0 -54 21 -32 24 -126 3 -126 -8 0 -16
17 -20 47 -3 27 -15 57 -28 70 -20 21 -30 23 -131 23 -135 0 -147 -7 -147 -87
0 -46 -2 -53 -20 -53 -19 0 -20 7 -20 160 l0 160 161 0 c101 0 168 -4 182 -11z"/>
<path d="M2086 314 c-22 -22 -21 -87 2 -107 15 -14 40 -17 129 -17 102 0 111
2 131 23 28 30 28 68 -1 95 -21 20 -34 22 -134 22 -88 0 -115 -3 -127 -16z
m252 -42 c7 -45 -12 -52 -129 -52 l-109 0 0 40 0 41 118 -3 c114 -3 117 -4
120 -26z"/>
<path d="M2490 226 c0 -152 0 -155 26 -185 24 -29 30 -31 92 -30 l67 1 -60 15
c-95 23 -95 23 -95 185 0 127 2 139 18 136 15 -3 18 -19 22 -125 6 -146 13
-157 98 -166 31 -3 84 -2 116 2 89 12 96 25 96 172 0 112 1 119 20 119 19 0
20 -7 20 -133 0 -160 -5 -170 -88 -189 l-57 -13 59 -3 c49 -3 62 0 82 19 22
21 23 29 26 185 l3 164 -47 0 -48 0 0 -135 c0 -123 -2 -135 -19 -145 -28 -14
-204 -13 -219 2 -8 8 -12 55 -12 145 l0 133 -50 0 -50 0 0 -154z"/>
</g>
</svg>
